# Blender v2.81 (sub 16) OBJ File: 'tidalechos-artifacts.blend'
# www.blender.org
mtllib fish.mtl
o Fish_Cube.004
v -0.253456 0.421264 0.006803
v -0.694737 0.269075 0.006803
v -0.253456 0.421264 -0.026387
v -0.694737 0.269075 -0.026387
v 1.359712 0.654075 0.006803
v 1.359712 0.654075 -0.026387
v 0.598726 0.663276 -0.026387
v 0.598726 0.663276 0.006803
v 0.175756 0.466651 -0.026387
v 0.175756 0.466651 0.006803
v 1.024817 0.742472 0.006803
v 1.024817 0.742472 -0.026387
v -0.306724 0.562729 -0.010316
v -0.787330 0.363560 -0.010316
v 1.412902 0.795540 -0.010316
v 0.598687 0.555776 -0.010316
v 0.598687 0.804741 -0.010316
v 0.149297 0.608116 -0.010316
v 1.051393 0.657329 -0.010316
v 1.051393 0.883937 -0.010316
v -1.103985 0.192982 -0.053474
v -0.886954 -0.412669 -0.053474
v -1.103985 0.192982 0.033890
v -0.886954 -0.412669 0.033890
v 2.366979 0.117397 -0.099484
v 2.366979 -0.045294 -0.099484
v 2.366979 0.117396 0.079900
v 2.366979 -0.045294 0.079900
v 0.598726 0.382917 0.117514
v 0.598726 -0.347780 0.117514
v 0.598726 0.382917 -0.137098
v 0.598726 -0.347780 -0.137098
v -0.226413 0.078148 0.117514
v -0.098607 -0.206865 -0.137098
v -0.098607 -0.206865 0.117514
v -0.226413 0.078148 -0.137098
v 1.728634 -0.262576 0.117514
v 1.617213 0.386194 -0.137098
v 1.617213 0.386194 0.117514
v 1.728634 -0.262576 -0.137098
v 1.924916 -0.213419 0.117514
v 1.924916 0.192926 -0.101316
v 1.924916 0.192926 0.081732
v 1.924916 -0.213419 -0.137098
v -0.727463 0.085901 0.117514
v -0.448911 -0.249468 -0.137098
v -0.448911 -0.249468 0.117514
v -0.727463 0.085901 -0.137098
v 1.040789 0.441904 0.117514
v 0.890044 -0.370719 -0.137098
v 0.890043 -0.370719 0.117514
v 1.040789 0.441904 -0.137098
v 0.156663 -0.305178 0.117514
v 0.156663 0.281327 -0.137098
v 0.156663 0.281327 0.117514
v 0.156663 -0.305178 -0.137098
v -1.203663 0.047563 -0.053474
v -1.203663 0.047563 0.033890
v 2.315092 0.036051 0.079900
v 2.315092 0.036051 -0.099484
v 0.598726 0.007737 -0.356313
v 0.598726 0.007737 0.336730
v -0.285400 0.007737 0.117514
v -0.285400 0.007737 -0.137098
v 1.305890 0.007737 -0.356314
v 1.305890 0.007737 0.336730
v 1.924916 0.007737 -0.282932
v 1.924916 0.007737 0.263348
v -0.727463 0.007737 0.117514
v -0.727463 0.007737 -0.137098
v 1.040789 0.007737 0.336730
v 1.040789 0.007737 -0.356314
v 0.156663 0.007737 -0.282932
v 0.156663 0.007737 0.263348
v -1.103985 0.274197 -0.009792
v -0.886954 -0.579779 -0.009792
v 2.366979 0.167620 -0.009792
v 2.366979 -0.061775 -0.009792
v 0.455524 -0.565014 -0.009792
v 0.598726 0.542006 -0.009792
v -0.226413 0.112279 -0.009792
v -0.098607 -0.289593 -0.009792
v 1.728634 -0.368145 -0.009792
v 1.617213 0.546627 -0.009792
v 1.924916 -0.298834 -0.009792
v 1.924916 0.371040 -0.009792
v -0.727463 0.123210 -0.009792
v -0.448911 -0.349662 -0.009792
v 1.040789 0.625179 -0.009792
v 0.853996 -0.464919 -0.009792
v 0.043354 -0.421661 0.071004
v 2.315092 0.052922 -0.009792
v -1.203663 0.069153 -0.009792
v -0.991304 -0.182553 -0.030263
v -0.991304 -0.182553 0.010679
v 2.341035 -0.004621 0.079900
v 2.341036 -0.004621 -0.099484
v 0.598726 -0.170021 -0.306430
v 0.598726 -0.170021 0.286846
v -0.192003 -0.099564 0.117514
v -0.192003 -0.099564 -0.137098
v 1.448443 -0.199515 -0.306430
v 1.448443 -0.199515 0.286846
v 1.924916 -0.102841 -0.137098
v 1.924916 -0.102841 0.117514
v -0.588187 -0.120865 0.117514
v -0.588187 -0.120865 -0.137098
v 0.991633 -0.181491 0.286846
v 0.991633 -0.181491 -0.306430
v 0.156663 -0.148720 -0.221048
v 0.156663 -0.148720 0.201464
v 2.341036 -0.004427 -0.009792
v -0.991304 -0.255313 -0.009792
v 1.479747 -0.316648 0.117514
v 1.329001 0.485776 -0.137098
v 1.329001 0.485776 0.117514
v 1.479747 -0.316647 -0.137098
v 1.173340 0.007737 -0.356314
v 1.173340 0.007737 0.336730
v 1.479747 -0.500098 -0.009792
v 1.292134 -0.190503 -0.306430
v 1.292134 -0.190503 0.286846
v -0.016944 -0.620531 -0.026562
v -0.467505 -0.742537 -0.009967
v -0.016944 -0.620531 0.006629
v 0.018462 -0.767488 -0.009443
v -0.491025 -0.872720 -0.009443
v 0.421216 -0.548846 -0.009443
v -0.082984 -0.337469 -0.009443
v 0.284342 -0.459364 0.006629
v 0.314704 -0.401374 -0.024797
v 0.347675 -0.425485 -0.026562
v 0.415250 -0.535182 -0.007778
v 0.400209 -0.500731 -0.015688
v 0.082686 -0.381226 -0.001233
v 0.092090 -0.371560 -0.018504
v 0.264659 -0.385442 -0.022992
v -0.092023 -0.292667 -0.009793
v -0.097725 -0.290413 -0.009290
v -0.113423 -0.291997 -0.009966
v -0.109239 -0.291416 -0.009792
v -0.098607 -0.289546 -0.009864
v -0.098606 -0.289098 -0.010553
v -0.098607 -0.289320 -0.009372
v 1.392341 0.617598 0.003599
v 1.379384 0.612188 0.006803
v 1.474049 0.603560 -0.009792
v 1.477875 0.601317 -0.010316
v 1.392202 0.617309 -0.023432
v 1.379384 0.612188 -0.026387
v 1.028520 0.603084 0.004418
v 1.028366 0.602720 -0.024241
v 1.040789 0.601288 0.006803
v 1.024817 0.599157 0.006803
v 1.040789 0.601288 -0.026387
v 1.024817 0.599157 -0.026387
v 1.153829 0.626917 -0.010316
v 1.040789 0.606967 -0.022443
v 1.144661 0.627469 -0.009792
v 1.040789 0.607534 0.002465
v 0.598700 0.535912 -0.004920
v 0.598726 0.535918 -0.004920
v 0.508529 0.506850 -0.010316
v 0.541746 0.520659 -0.011390
v 0.598700 0.534593 -0.015717
v 0.598726 0.534603 -0.015717
v 0.598726 0.521268 0.006803
v 0.017648 0.265451 0.006803
v 0.147093 0.352894 0.006803
v 0.598726 0.521268 -0.026387
v 0.044977 0.300228 -0.026387
v 0.144965 0.368813 -0.026387
v -0.212063 0.115441 0.006803
v -0.169912 0.151814 -0.011733
v -0.214557 0.116235 -0.026387
v -0.163822 0.154930 -0.010316
vt 0.375000 0.128945
vt 0.375000 0.250000
vt 0.625000 0.250000
vt 0.625000 0.128945
vt 0.375000 0.437500
vt 0.375000 0.500000
vt 0.428929 0.500000
vt 0.605627 0.440262
vt 0.616812 0.437500
vt 0.375000 0.621055
vt 0.375000 0.750000
vt 0.428929 0.750000
vt 0.445473 0.725917
vt 0.547997 0.625006
vt 0.553112 0.621055
vt 0.375000 0.937042
vt 0.375000 1.000000
vt 0.625000 1.000000
vt 0.625000 0.946886
vt 0.507479 0.937042
vt 0.312500 0.621055
vt 0.312500 0.750000
vt 0.687500 0.621055
vt 0.687500 0.732036
vt 0.749996 0.661694
vt 0.750000 0.661694
vt 0.750000 0.621055
vt 0.187958 0.621055
vt 0.187958 0.750000
vt 0.250000 0.750000
vt 0.250000 0.621055
vt 0.375000 0.812500
vt 0.375000 0.875000
vt 0.583192 0.875000
vt 0.616812 0.812500
vt 0.375000 0.312958
vt 0.375000 0.375000
vt 0.583192 0.375000
vt 0.466688 0.321475
vt 0.484580 0.312958
vt 0.625000 0.302840
vt 0.125000 0.621055
vt 0.125000 0.750000
vt 0.757481 0.621055
vt 0.486320 0.926028
vt 0.605627 0.809738
vt 0.250000 0.500000
vt 0.312500 0.500000
vt 0.125000 0.500000
vt 0.187958 0.500000
vt 0.445333 0.522203
vt 0.375000 0.000000
vt 0.625000 0.000000
vt 0.562500 0.125000
vt 0.562500 0.250000
vt 0.625000 0.250000
vt 0.625000 0.125000
vt 0.562500 0.468750
vt 0.562500 0.500000
vt 0.625000 0.500000
vt 0.625000 0.468750
vt 0.562500 0.625000
vt 0.562500 0.750000
vt 0.625000 0.750000
vt 0.625000 0.625000
vt 0.562500 0.968750
vt 0.562500 1.000000
vt 0.625000 1.000000
vt 0.625000 0.968750
vt 0.343750 0.625000
vt 0.343750 0.750000
vt 0.375000 0.750000
vt 0.375000 0.625000
vt 0.843750 0.625000
vt 0.843750 0.750000
vt 0.875000 0.750000
vt 0.875000 0.625000
vt 0.718750 0.625000
vt 0.718750 0.750000
vt 0.750000 0.750000
vt 0.750000 0.625000
vt 0.562500 0.843750
vt 0.562500 0.875000
vt 0.625000 0.875000
vt 0.625000 0.843750
vt 0.562500 0.343750
vt 0.562500 0.375000
vt 0.625000 0.375000
vt 0.625000 0.343750
vt 0.562500 0.281250
vt 0.562500 0.312500
vt 0.625000 0.312500
vt 0.625000 0.281250
vt 0.156250 0.625000
vt 0.156250 0.750000
vt 0.187500 0.750000
vt 0.187500 0.625000
vt 0.781250 0.625000
vt 0.781250 0.668391
vt 0.812306 0.625000
vt 0.562500 0.906250
vt 0.562500 0.937500
vt 0.625000 0.937500
vt 0.625000 0.906250
vt 0.562500 0.781250
vt 0.562500 0.812500
vt 0.625000 0.812500
vt 0.625000 0.781250
vt 0.656250 0.625000
vt 0.656250 0.750000
vt 0.687500 0.750000
vt 0.687500 0.625000
vt 0.562500 0.421875
vt 0.562500 0.437500
vt 0.625000 0.437500
vt 0.625000 0.421875
vt 0.312500 0.625000
vt 0.312500 0.750000
vt 0.125000 0.625000
vt 0.125000 0.750000
vt 0.812500 0.625000
vt 0.812500 0.625071
vt 0.813823 0.625171
vt 0.813448 0.625000
vt 0.562500 0.406250
vt 0.625000 0.406250
vt 0.250000 0.625000
vt 0.250000 0.630817
vt 0.280320 0.639186
vt 0.281250 0.637422
vt 0.281250 0.625000
vt 0.562500 0.828125
vt 0.625000 0.828125
vt 0.703125 0.625000
vt 0.703125 0.750000
vt 0.764087 0.660800
vt 0.756760 0.641100
vt 0.754012 0.630271
vt 0.765824 0.640000
vt 0.218750 0.750000
vt 0.218750 0.629205
vt 0.210357 0.632460
vt 0.188498 0.640917
vt 0.192260 0.625000
vt 0.375000 0.312500
vt 0.375000 0.343750
vt 0.500000 0.343750
vt 0.500000 0.312500
vt 0.375000 0.875000
vt 0.375000 0.906250
vt 0.500000 0.906250
vt 0.500000 0.875000
vt 0.375000 0.828125
vt 0.375000 0.843750
vt 0.500000 0.843750
vt 0.500000 0.828125
vt 0.375000 0.375000
vt 0.375000 0.406250
vt 0.500000 0.406250
vt 0.500000 0.375000
vt 0.375000 0.937500
vt 0.375000 0.968750
vt 0.500000 0.968750
vt 0.500000 0.937500
vt 0.375000 0.250000
vt 0.375000 0.281250
vt 0.500000 0.281250
vt 0.500000 0.250000
vt 0.375000 0.437500
vt 0.375000 0.468750
vt 0.500000 0.468750
vt 0.500000 0.437500
vt 0.375000 0.781250
vt 0.500000 0.781250
vt 0.500000 0.750000
vt 0.375000 0.421875
vt 0.500000 0.421875
vt 0.375000 0.812500
vt 0.500000 0.812500
vt 0.375000 1.000000
vt 0.500000 1.000000
vt 0.500000 0.625000
vt 0.375000 0.500000
vt 0.500000 0.500000
vt 0.375000 0.125000
vt 0.500000 0.125000
vt 0.375000 0.000000
vt 0.500000 0.000000
vt 0.187500 0.500000
vt 0.192762 0.623529
vt 0.188693 0.608326
vt 0.207910 0.602234
vt 0.218750 0.598816
vt 0.218750 0.500000
vt 0.750000 0.500000
vt 0.781250 0.500000
vt 0.703125 0.500000
vt 0.718750 0.500000
vt 0.250000 0.500000
vt 0.250000 0.608705
vt 0.280056 0.608707
vt 0.281250 0.608705
vt 0.281250 0.500000
vt 0.812500 0.500000
vt 0.812500 0.624587
vt 0.843750 0.500000
vt 0.125000 0.500000
vt 0.156250 0.500000
vt 0.312500 0.500000
vt 0.343750 0.500000
vt 0.656250 0.500000
vt 0.296875 0.500000
vt 0.296875 0.611852
vt 0.302212 0.625000
vt 0.687500 0.500000
vt 0.875000 0.500000
vt 0.562500 0.000000
vt 0.625000 0.000000
vt 0.296438 0.608704
vt 0.286179 0.625514
vt 0.285771 0.625000
vt 0.375000 0.128945
vt 0.375000 0.250000
vt 0.625000 0.250000
vt 0.625000 0.128945
vt 0.812042 0.621055
vt 0.812042 0.707274
vt 0.812841 0.724902
vt 0.814914 0.750000
vt 0.875000 0.750000
vt 0.875000 0.621055
vt 0.375000 0.299841
vt 0.500042 0.306081
vt 0.617001 0.310808
vt 0.617955 0.310887
vt 0.622884 0.310267
vt 0.625000 0.310086
vt 0.125000 0.621055
vt 0.125000 0.750000
vt 0.185318 0.750000
vt 0.187958 0.668093
vt 0.187958 0.621055
vt 0.125000 0.500000
vt 0.187958 0.608514
vt 0.174841 0.500000
vt 0.375000 0.000000
vt 0.625000 0.000000
vt 0.781250 0.678764
vt 0.812500 0.625747
vt 0.781250 0.750000
vt 0.812500 0.750000
vt 0.375000 0.939682
vt 0.375000 1.000000
vt 0.625000 1.000000
vt 0.625000 0.939914
vt 0.618051 0.939090
vt 0.501482 0.942274
vt 0.428773 0.937042
vt 0.401583 0.937042
vt 0.813498 0.621055
vt 0.875000 0.621055
vt 0.875000 0.500000
vt 0.822160 0.500000
vt 0.814403 0.610380
vt 0.250000 0.620217
vt 0.281250 0.612965
vt 0.280332 0.611048
vt 0.246079 0.625000
vt 0.249998 0.620216
vt 0.243764 0.623160
vt 0.673358 0.621055
vt 0.674488 0.624999
vt 0.686194 0.717320
vt 0.250000 0.641295
vt 0.250000 0.750000
vt 0.281250 0.750000
vt 0.281250 0.641295
vt 0.280056 0.641293
vt 0.249998 0.630817
vt 0.687500 0.516165
vt 0.686164 0.529712
vt 0.296875 0.750000
vt 0.296875 0.638393
vt 0.296438 0.641296
vt 0.821886 0.750000
vt 0.875000 0.750000
vt 0.750000 0.580367
vt 0.749996 0.580374
vt 0.302500 0.625514
vt 0.754762 0.612980
vn -0.0417 0.1095 -0.9931
vn -0.0000 0.0000 -1.0000
vn 0.1692 0.0586 0.9838
vn 0.0000 -0.0000 1.0000
vn 0.0285 0.1122 0.9933
vn 0.0636 -0.2798 -0.9579
vn -0.0519 0.1152 0.9920
vn -0.0120 0.1168 0.9931
vn 0.1408 -0.2594 -0.9554
vn -0.0220 0.1221 0.9923
vn -0.0207 0.1148 -0.9932
vn -0.0113 0.1097 -0.9939
vn -0.0488 0.1082 -0.9929
vn 0.0268 0.1054 -0.9941
vn 0.1592 0.0552 -0.9857
vn -0.0444 0.1165 0.9922
vn 0.6218 0.2023 -0.7566
vn -0.0829 -0.0142 -0.9965
vn -0.8830 -0.4674 -0.0424
vn 0.2015 0.0736 0.9767
vn -0.1940 -0.6098 0.7684
vn -0.1594 0.5320 0.8316
vn -0.0734 0.6562 0.7510
vn 0.0338 0.6727 0.7391
vn 0.1198 0.5996 -0.7913
vn -0.0179 -0.9627 0.2701
vn 0.3405 0.7292 0.5936
vn 0.2149 0.3645 0.9061
vn -0.3014 0.3704 0.8786
vn -0.2347 0.7776 0.5833
vn -0.0902 0.8112 -0.5778
vn -0.3973 0.8307 0.3901
vn -0.0829 -0.0142 0.9965
vn -0.3505 -0.5084 0.7866
vn -0.3014 0.3704 -0.8786
vn -0.2134 -0.8029 0.5566
vn 0.2015 0.0736 -0.9767
vn -0.1363 0.7976 0.5876
vn 0.0338 0.6727 -0.7391
vn 0.1098 -0.5907 0.7994
vn -0.0368 0.7267 0.6860
vn -0.0105 0.6766 0.7363
vn 0.1198 0.5996 0.7913
vn 0.2953 0.4355 0.8504
vn 0.2149 0.3645 -0.9061
vn 0.4729 -0.7671 0.4335
vn 0.2563 -0.4142 -0.8733
vn 0.1276 -0.4864 0.8644
vn 0.0458 -0.4391 0.8973
vn 0.0318 -0.4761 -0.8788
vn 0.1786 -0.0796 -0.9807
vn -0.2022 -0.4909 -0.8474
vn -0.2135 -0.5214 0.8262
vn -0.0973 -0.4110 -0.9064
vn -0.2022 -0.4909 0.8474
vn 0.2563 -0.4142 0.8733
vn 0.1276 -0.4864 -0.8644
vn 0.0318 -0.4761 0.8788
vn 0.1786 -0.0796 0.9807
vn -0.8706 0.4608 -0.1724
vn -0.2135 -0.5214 -0.8262
vn 0.7513 -0.4274 -0.5029
vn 0.7513 -0.4274 0.5029
vn -0.8706 0.4608 0.1724
vn 0.4738 -0.7983 -0.3718
vn 0.0144 0.4532 -0.8913
vn -0.0105 0.6766 -0.7363
vn 0.0933 -0.5932 -0.7997
vn -0.1182 0.8064 -0.5794
vn -0.2134 -0.8029 -0.5566
vn -0.3505 -0.5084 -0.7866
vn -0.3973 0.8307 -0.3901
vn -0.2176 -0.5922 -0.7758
vn -0.2347 0.7776 -0.5833
vn 0.4206 0.4487 -0.7885
vn -0.0179 -0.9627 -0.2701
vn 0.2128 -0.7045 -0.6771
vn -0.0734 0.6562 -0.7510
vn -0.1594 0.5320 -0.8316
vn -0.1940 -0.6098 -0.7684
vn -0.8830 -0.4674 0.0424
vn 0.6218 0.2023 0.7566
vn 0.7024 0.5565 0.4439
vn -0.8829 -0.4674 -0.0445
vn 0.2829 0.3129 -0.9067
vn 0.1752 0.3122 0.9337
vn 0.0052 0.2502 0.9682
vn 0.0036 0.2619 -0.9651
vn 0.1986 0.2559 -0.9461
vn -0.2312 0.4328 -0.8713
vn -0.2952 0.6364 0.7126
vn 0.0076 0.2435 -0.9699
vn -0.2312 0.4328 0.8713
vn 0.2829 0.3129 0.9067
vn 0.1752 0.3122 -0.9337
vn 0.0036 0.2619 0.9651
vn 0.1986 0.2559 0.9461
vn -0.8829 -0.4674 0.0445
vn -0.2952 0.6364 -0.7126
vn 0.7024 0.5565 -0.4439
vn 0.0052 0.2502 -0.9682
vn 0.0076 0.2435 0.9699
vn 0.0548 -0.6185 -0.7838
vn -0.2398 0.6417 -0.7285
vn 0.0458 -0.4391 -0.8973
vn -0.0973 -0.4110 0.9064
vn -0.2398 0.6417 0.7285
vn -0.0902 0.8112 0.5778
vn -0.0368 0.7267 -0.6860
vn 0.0126 -0.5704 0.8212
vn -0.0040 -0.0562 0.9984
vn -0.0073 0.0057 1.0000
vn -0.0373 0.0389 0.9985
vn 0.0557 -0.1033 -0.9931
vn 0.0523 -0.0970 0.9939
vn -0.0022 -0.0636 -0.9980
vn 0.3414 0.7314 0.5903
vn 0.3218 0.7697 0.5514
vn 0.1385 0.7142 0.6861
vn 0.7369 0.5668 -0.3684
vn -0.1410 0.8301 0.5394
vn -0.1182 0.8064 0.5794
vn -0.1423 0.8299 -0.5394
vn -0.0361 0.0392 -0.9986
vn -0.0848 -0.2588 0.9622
vn 0.1096 -0.5893 -0.8004
vn 0.2539 -0.6406 -0.7247
vn -0.0695 -0.2341 -0.9697
vn 0.0933 -0.5932 0.7997
vn 0.1933 -0.6818 0.7056
vn 0.2075 -0.6112 0.7638
vn -0.0655 -0.2205 0.9732
vn 0.0548 -0.6185 0.7839
vn -0.0899 -0.2744 -0.9574
vn 0.0600 -0.2637 0.9627
vn 0.0126 -0.5704 -0.8212
vn -0.2176 -0.5923 0.7758
vn 0.1329 -0.2448 0.9604
usemtl None
s off
f 13/1/1 3/2/1 4/3/1 14/4/1
f 12/5/2 6/6/2 150/7/2 155/8/2 156/9/2
f 15/10/3 5/11/3 146/12/3 145/13/3 147/14/3 148/15/3
f 10/16/4 1/17/4 2/18/4 173/19/4 168/20/4
f 20/21/5 11/22/5 5/11/5 15/10/5
f 19/23/6 151/24/6 162/25/6 161/26/6 16/27/6
f 18/28/7 10/29/7 8/30/7 17/31/7
f 11/32/4 8/33/4 167/34/4 154/35/4
f 9/36/2 7/37/2 170/38/2 172/39/2 171/40/2
f 3/2/2 9/36/2 171/40/2 175/41/2 4/3/2
f 13/42/8 1/43/8 10/29/8 18/28/8
f 16/27/9 161/26/9 163/44/9
f 8/33/4 10/16/4 168/20/4 169/45/4 167/34/4
f 5/11/4 11/32/4 154/35/4 153/46/4 146/12/4
f 17/31/10 8/30/10 11/22/10 20/21/10
f 7/37/2 12/5/2 156/9/2 170/38/2
f 7/47/11 17/31/11 20/21/11 12/48/11
f 3/49/12 13/42/12 18/28/12 9/50/12
f 9/50/13 18/28/13 17/31/13 7/47/13
f 12/48/14 20/21/14 15/10/14 6/6/14
f 6/6/15 15/10/15 148/15/15 149/51/15 150/7/15
f 1/52/16 13/1/16 14/4/16 2/53/16
f 113/54/17 95/55/17 24/56/17 76/57/17
f 105/58/18 96/59/18 28/60/18 41/61/18
f 112/62/19 97/63/19 26/64/19 78/65/19
f 107/66/20 94/67/20 22/68/20 46/69/20
f 86/70/21 42/71/21 25/72/21 77/73/21
f 88/74/22 46/75/22 22/76/22 76/77/22
f 90/78/23 50/79/23 32/80/23 79/81/23
f 109/82/24 98/83/24 32/84/24 50/85/24
f 111/86/25 99/87/25 30/88/25 53/89/25
f 106/90/2 100/91/2 35/92/2 47/93/2
f 87/94/26 48/95/26 36/96/26 81/97/26
f 91/98/27 135/99/27 139/100/27
f 110/101/28 101/102/28 34/103/28 56/104/28
f 104/105/29 102/106/29 40/107/29 44/108/29
f 85/109/30 44/110/30 40/111/30 83/112/30
f 122/113/31 103/114/31 37/115/31 114/116/31
f 78/65/32 26/64/32 44/110/32 85/109/32
f 97/63/33 104/105/33 44/108/33 26/64/33
f 84/117/34 38/118/34 42/71/34 86/70/34
f 103/114/35 105/58/35 41/61/35 37/115/35
f 75/119/36 21/120/36 48/95/36 87/94/36
f 95/55/37 106/90/37 47/93/37 24/56/37
f 82/121/38 142/122/38 140/123/38 141/124/38
f 101/102/4 107/66/4 46/69/4 34/103/4
f 99/87/39 108/125/39 51/126/39 30/88/39
f 80/127/40 166/128/40 152/129/40 158/130/40 89/131/40
f 121/132/41 109/82/41 50/85/41 117/133/41
f 120/134/42 117/135/42 50/79/42 90/78/42
f 98/83/43 110/101/43 56/104/43 32/84/43
f 79/81/44 32/80/44 132/136/44 134/137/44 133/138/44 130/139/44 135/99/44 91/98/44
f 100/91/45 111/86/45 53/89/45 35/92/45
f 81/97/46 36/96/46 54/140/46 172/141/46 171/142/46 175/143/46 174/144/46
f 33/145/47 55/146/47 74/147/47 63/148/47
f 31/149/48 54/150/48 73/151/48 61/152/48
f 115/153/49 52/154/49 72/155/49 118/156/49
f 29/157/50 49/158/50 71/159/50 62/160/50
f 36/161/4 48/162/4 70/163/4 64/164/4
f 23/165/51 45/166/51 69/167/51 58/168/51
f 39/169/52 43/170/52 68/171/52 66/172/52
f 25/72/53 42/173/53 67/174/53 60/175/53
f 116/176/54 39/169/54 66/172/54 119/177/54
f 42/173/55 38/178/55 65/179/55 67/174/55
f 54/150/56 36/161/56 64/164/56 73/151/56
f 45/166/2 33/145/2 63/148/2 69/167/2
f 55/146/57 29/157/57 62/160/57 74/147/57
f 52/154/58 31/149/58 61/152/58 72/155/58
f 48/162/59 21/180/59 57/181/59 70/163/59
f 77/73/60 25/72/60 60/175/60 92/182/60
f 43/170/61 27/183/61 59/184/61 68/171/61
f 75/185/62 23/165/62 58/168/62 93/186/62
f 21/187/63 75/185/63 93/186/63 57/188/63
f 27/183/64 77/73/64 92/182/64 59/184/64
f 33/189/65 81/97/65 174/144/65 176/190/65 173/191/65 168/192/65 169/193/65 55/194/65
f 30/195/66 79/81/66 91/98/66 53/196/66
f 114/197/67 120/134/67 90/78/67 51/198/67
f 29/199/68 167/200/68 154/201/68 153/202/68 49/203/68
f 35/204/69 144/205/69 141/124/69 88/74/69 47/206/69
f 23/207/70 75/119/70 87/94/70 45/208/70
f 39/209/71 84/117/71 86/70/71 43/210/71
f 28/60/72 78/65/72 85/109/72 41/211/72
f 116/212/73 145/213/73 147/214/73 84/117/73 39/209/73
f 41/211/74 85/109/74 83/112/74 37/215/74
f 53/196/75 91/98/75 139/100/75 144/205/75 35/204/75
f 45/208/76 87/94/76 81/97/76 33/189/76
f 55/194/77 169/193/77 167/200/77 29/199/77
f 51/198/78 90/78/78 79/81/78 30/195/78
f 47/206/79 88/74/79 76/77/79 24/216/79
f 43/210/80 86/70/80 77/73/80 27/183/80
f 96/59/81 112/62/81 78/65/81 28/60/81
f 94/217/82 113/54/82 76/57/82 22/218/82
f 57/188/83 93/186/83 113/54/83 94/217/83
f 59/184/84 92/182/84 112/62/84 96/59/84
f 63/148/85 74/147/85 111/86/85 100/91/85
f 61/152/86 73/151/86 110/101/86 98/83/86
f 118/156/87 72/155/87 109/82/87 121/132/87
f 62/160/88 71/159/88 108/125/88 99/87/88
f 64/164/4 70/163/4 107/66/4 101/102/4
f 58/168/89 69/167/89 106/90/89 95/55/89
f 66/172/90 68/171/90 105/58/90 103/114/90
f 60/175/91 67/174/91 104/105/91 97/63/91
f 119/177/92 66/172/92 103/114/92 122/113/92
f 67/174/93 65/179/93 102/106/93 104/105/93
f 73/151/94 64/164/94 101/102/94 110/101/94
f 69/167/2 63/148/2 100/91/2 106/90/2
f 74/147/95 62/160/95 99/87/95 111/86/95
f 72/155/96 61/152/96 98/83/96 109/82/96
f 70/163/97 57/181/97 94/67/97 107/66/97
f 92/182/98 60/175/98 97/63/98 112/62/98
f 68/171/99 59/184/99 96/59/99 105/58/99
f 93/186/100 58/168/100 95/55/100 113/54/100
f 71/159/101 119/177/101 122/113/101 108/125/101
f 65/179/102 118/156/102 121/132/102 102/106/102
f 49/203/103 153/202/103 146/219/103 145/213/103 116/212/103
f 37/215/104 83/112/104 120/134/104 114/197/104
f 49/158/105 116/176/105 119/177/105 71/159/105
f 38/178/106 115/153/106 118/156/106 65/179/106
f 83/112/107 40/111/107 117/135/107 120/134/107
f 102/106/108 121/132/108 117/133/108 40/107/108
f 108/125/109 122/113/109 114/116/109 51/126/109
f 89/131/110 158/130/110 157/220/110 159/221/110
f 126/222/111 125/223/111 124/224/111 127/225/111
f 129/226/112 138/227/112 142/228/112 140/229/112 124/230/112 127/231/112
f 125/223/113 130/232/113 135/233/113 139/234/113 144/235/113 141/236/113 140/237/113 124/224/113
f 126/238/114 123/239/114 132/240/114 134/241/114 128/242/114
f 125/243/115 126/238/115 128/242/115 133/244/115 130/245/115
f 123/246/116 126/222/116 127/225/116 124/247/116
f 135/99/117 136/248/117 143/249/117 142/122/117 82/121/117 139/100/117
f 136/248/118 56/250/118 34/251/118 143/249/118
f 32/80/119 56/250/119 136/248/119 135/99/119 130/139/119 133/138/119 134/137/119 132/136/119
f 139/100/120 82/121/120 144/205/120
f 142/122/121 143/249/121 140/123/121
f 143/249/122 34/251/122 46/75/122 88/74/122 141/124/122 140/123/122
f 144/205/123 82/121/123 141/124/123
f 132/252/124 123/253/124 124/254/124 140/255/124 143/256/124 136/257/124 137/258/124 131/259/124
f 176/260/125 14/261/125 4/262/125 175/263/125 174/264/125
f 162/265/126 80/127/126 89/131/126 160/266/126 151/267/126
f 164/268/127 80/127/127 162/265/127 161/269/127 163/270/127
f 151/24/128 19/23/128 157/271/128 159/272/128 160/273/128
f 170/274/129 31/275/129 52/276/129 155/277/129 156/278/129
f 172/141/130 54/140/130 31/275/130 170/274/130
f 166/128/131 80/127/131 164/268/131 165/279/131
f 157/271/132 19/23/132 152/280/132 158/281/132
f 155/277/133 52/276/133 115/282/133 149/283/133 150/284/133
f 173/285/134 2/286/134 14/261/134 176/260/134
f 152/280/135 19/23/135 16/27/135 165/287/135 166/288/135
f 160/266/136 89/131/136 159/221/136
f 149/283/137 115/282/137 38/118/137 84/117/137 147/214/137 148/289/137
f 165/287/138 16/27/138 163/44/138 164/290/138
