# Blender v2.81 (sub 16) OBJ File: 'tidalechos-artifactsjusthandle.blend'
# www.blender.org
mtllib pailhandle.mtl
o Handle_Cylinder.002
v 7.647061 2.266634 -0.080276
v 7.647061 2.266254 0.051887
v 8.023231 2.166141 -0.080565
v 8.023231 2.165761 0.051598
v 8.342132 1.879962 -0.081387
v 8.342132 1.879583 0.050776
v 8.555215 1.451666 -0.082618
v 8.555215 1.451286 0.049545
v 8.630039 0.946455 -0.084069
v 8.630039 0.946075 0.048094
v 6.664082 0.946455 -0.084069
v 6.664082 0.946075 0.048094
v 6.738907 1.451666 -0.082618
v 6.738907 1.451286 0.049545
v 6.951990 1.879963 -0.081387
v 6.951990 1.879583 0.050776
v 7.270892 2.166141 -0.080565
v 7.270892 2.165761 0.051598
v 7.316817 2.031870 0.051213
v 7.316817 2.032249 -0.080950
v 6.849780 1.271605 0.049029
v 6.849780 1.271985 -0.083134
v 7.036849 1.727350 0.050338
v 7.036849 1.727730 -0.081825
v 6.784090 0.734016 0.047485
v 6.784090 0.734396 -0.084678
v 7.647061 2.138803 0.051520
v 7.647061 2.139182 -0.080643
v 8.510032 0.734016 0.047485
v 8.510032 0.734396 -0.084678
v 8.444342 1.271605 0.049029
v 8.444342 1.271984 -0.083134
v 8.257274 1.727350 0.050338
v 8.257274 1.727730 -0.081825
v 7.977305 2.031870 0.051213
v 7.977305 2.032249 -0.080950
vt 1.000000 0.500000
vt 1.000000 1.000000
vt 0.937500 1.000000
vt 0.937500 0.500000
vt 0.875000 1.000000
vt 0.875000 0.500000
vt 0.812500 1.000000
vt 0.812500 0.500000
vt 0.750000 1.000000
vt 0.750000 0.500000
vt 0.250000 0.500000
vt 0.250000 1.000000
vt 0.187500 1.000000
vt 0.187500 0.500000
vt 0.125000 1.000000
vt 0.125000 0.500000
vt 0.341844 0.471731
vt 0.250000 0.490000
vt 0.158156 0.471731
vt 0.080294 0.419706
vt 0.028269 0.341844
vt 0.010000 0.250000
vt 0.063633 0.250000
vt 0.077820 0.321320
vt 0.118219 0.381781
vt 0.178681 0.422181
vt 0.250000 0.436367
vt 0.321319 0.422180
vt 0.381781 0.381781
vt 0.422180 0.321319
vt 0.436367 0.250000
vt 0.490000 0.250000
vt 0.471731 0.341844
vt 0.419706 0.419706
vt 0.062500 1.000000
vt 0.062500 0.500000
vt 0.000000 1.000000
vt 0.000000 0.500000
vt 0.750000 0.490000
vt 0.841844 0.471731
vt 0.919706 0.419706
vt 0.971731 0.341844
vt 0.990000 0.250000
vt 0.936367 0.250000
vt 0.922180 0.321319
vt 0.881781 0.381781
vt 0.821319 0.422180
vt 0.750000 0.436367
vt 0.678681 0.422180
vt 0.618219 0.381781
vt 0.577820 0.321320
vt 0.563633 0.250000
vt 0.510000 0.250000
vt 0.528269 0.341844
vt 0.580294 0.419706
vt 0.658156 0.471731
vt 0.812500 0.570674
vt 0.812500 0.929326
vt 0.875000 0.929326
vt 0.875000 0.570674
vt 0.750000 0.570674
vt 0.750000 0.929326
vt 0.062500 0.570674
vt 0.062500 0.929326
vt 0.125000 0.929326
vt 0.125000 0.570674
vt 0.937500 0.570674
vt 0.937500 0.929326
vt 1.000000 0.929326
vt 1.000000 0.570674
vt 0.000000 0.570674
vt 0.000000 0.929326
vt 0.187500 0.929326
vt 0.187500 0.570674
vt 0.250000 0.929326
vt 0.250000 0.570674
vn 0.2581 0.9661 0.0028
vn 0.6679 0.7443 0.0021
vn 0.8953 0.4454 0.0013
vn 0.9892 0.1465 0.0004
vn -0.9892 0.1465 0.0004
vn -0.8953 0.4454 0.0013
vn 0.0000 -0.0029 1.0000
vn -0.6679 0.7443 0.0021
vn -0.2581 0.9661 0.0028
vn -0.0000 0.0029 -1.0000
vn -0.9251 -0.3797 -0.0011
vn -0.9926 -0.1213 -0.0003
vn 0.7362 -0.6768 -0.0019
vn -0.3081 -0.9514 -0.0027
vn 0.3081 -0.9514 -0.0027
vn 0.9251 -0.3797 -0.0011
vn -0.7362 -0.6768 -0.0019
vn 0.9926 -0.1213 -0.0003
usemtl None
s off
f 1/1/1 2/2/1 4/3/1 3/4/1
f 3/4/2 4/3/2 6/5/2 5/6/2
f 5/6/3 6/5/3 8/7/3 7/8/3
f 7/8/4 8/7/4 10/9/4 9/10/4
f 11/11/5 12/12/5 14/13/5 13/14/5
f 13/14/6 14/13/6 16/15/6 15/16/6
f 4/17/7 2/18/7 18/19/7 16/20/7 14/21/7 12/22/7 25/23/7 21/24/7 23/25/7 19/26/7 27/27/7 35/28/7 33/29/7 31/30/7 29/31/7 10/32/7 8/33/7 6/34/7
f 15/16/8 16/15/8 18/35/8 17/36/8
f 17/36/9 18/35/9 2/37/9 1/38/9
f 1/39/10 3/40/10 5/41/10 7/42/10 9/43/10 30/44/10 32/45/10 34/46/10 36/47/10 28/48/10 20/49/10 24/50/10 22/51/10 26/52/10 11/53/10 13/54/10 15/55/10 17/56/10
f 32/57/11 31/58/11 33/59/11 34/60/11
f 30/61/12 29/62/12 31/58/12 32/57/12
f 20/63/13 19/64/13 23/65/13 24/66/13
f 36/67/14 35/68/14 27/69/14 28/70/14
f 28/71/15 27/72/15 19/64/15 20/63/15
f 24/66/16 23/65/16 21/73/16 22/74/16
f 34/60/17 33/59/17 35/68/17 36/67/17
f 22/74/18 21/73/18 25/75/18 26/76/18
